<svg width="32" height="32" viewBox="0 0 32 32" xmlns="http://www.w3.org/2000/svg">
  <defs>
    <linearGradient id="grad1" x1="0%" y1="0%" x2="100%" y2="100%">
      <stop offset="0%" style="stop-color:#8b5cf6;stop-opacity:1" />
      <stop offset="100%" style="stop-color:#a855f7;stop-opacity:1" />
    </linearGradient>
  </defs>
  <!-- Background circle -->
  <circle cx="16" cy="16" r="15" fill="url(#grad1)" stroke="#7c3aed" stroke-width="2"/>
  <!-- Game controller shape -->
  <path d="M8 14c-1.1 0-2 0.9-2 2v4c0 1.1 0.9 2 2 2h16c1.1 0 2-0.9 2-2v-4c0-1.1-0.9-2-2-2H8z" fill="white"/>
  <!-- D-pad -->
  <rect x="10" y="16" width="2" height="6" rx="1" fill="#8b5cf6"/>
  <rect x="9" y="17" width="4" height="2" rx="1" fill="#8b5cf6"/>
  <!-- Action buttons -->
  <circle cx="20" cy="17" r="1.5" fill="#8b5cf6"/>
  <circle cx="22" cy="15" r="1.5" fill="#8b5cf6"/>
  <circle cx="22" cy="19" r="1.5" fill="#8b5cf6"/>
  <circle cx="24" cy="17" r="1.5" fill="#8b5cf6"/>
</svg>