<svg width="1200" height="630" viewBox="0 0 1200 630" xmlns="http://www.w3.org/2000/svg">
  <defs>
    <linearGradient id="ogBg" x1="0%" y1="0%" x2="100%" y2="100%">
      <stop offset="0%" style="stop-color:#0a0e1a;stop-opacity:1" />
      <stop offset="50%" style="stop-color:#1a1b3a;stop-opacity:1" />
      <stop offset="100%" style="stop-color:#2d1b69;stop-opacity:1" />
    </linearGradient>
    <linearGradient id="ogAccent" x1="0%" y1="0%" x2="100%" y2="100%">
      <stop offset="0%" style="stop-color:#8b5cf6;stop-opacity:1" />
      <stop offset="100%" style="stop-color:#a855f7;stop-opacity:1" />
    </linearGradient>
  </defs>
  
  <!-- Background -->
  <rect width="1200" height="630" fill="url(#ogBg)"/>
  
  <!-- Grid pattern -->
  <defs>
    <pattern id="grid" width="60" height="60" patternUnits="userSpaceOnUse">
      <path d="M 60 0 L 0 0 0 60" fill="none" stroke="rgba(139,92,246,0.1)" stroke-width="1"/>
    </pattern>
  </defs>
  <rect width="1200" height="630" fill="url(#grid)"/>
  
  <!-- Logo circle -->
  <circle cx="300" cy="315" r="100" fill="url(#ogAccent)" opacity="0.9"/>
  
  <!-- Game controller in circle -->
  <g transform="translate(300, 315)">
    <!-- Controller body -->
    <ellipse cx="0" cy="0" rx="60" ry="25" fill="white" opacity="0.95"/>
    <!-- D-pad -->
    <rect x="-35" y="-3" width="3" height="15" rx="1.5" fill="#8b5cf6"/>
    <rect x="-40" y="2" width="13" height="3" rx="1.5" fill="#8b5cf6"/>
    <!-- Action buttons -->
    <circle cx="20" cy="-8" r="5" fill="#8b5cf6"/>
    <circle cx="28" cy="-15" r="5" fill="#a855f7"/>
    <circle cx="28" cy="-1" r="5" fill="#7c3aed"/>
    <circle cx="36" cy="-8" r="5" fill="#8b5cf6"/>
  </g>
  
  <!-- Main title -->
  <text x="500" y="280" font-family="Arial, sans-serif" font-size="64" font-weight="bold" fill="white">
    The Game Library
  </text>
  
  <!-- Subtitle -->
  <text x="500" y="340" font-family="Arial, sans-serif" font-size="32" fill="url(#ogAccent)">
    Premium Crypto Gaming Platform
  </text>
  
  <!-- Feature text -->
  <text x="500" y="400" font-family="Arial, sans-serif" font-size="24" fill="rgba(255,255,255,0.8)">
    🎮 1000+ Games  •  ⚡ Instant Crypto Payments  •  🎯 Provably Fair
  </text>
  
  <!-- Bottom accent -->
  <rect x="500" y="450" width="400" height="4" rx="2" fill="url(#ogAccent)"/>
  
  <!-- Decorative elements -->
  <circle cx="950" cy="150" r="40" fill="url(#ogAccent)" opacity="0.3"/>
  <circle cx="1050" cy="500" r="60" fill="url(#ogAccent)" opacity="0.2"/>
  <circle cx="150" cy="500" r="30" fill="url(#ogAccent)" opacity="0.4"/>
</svg>